<svg xmlns="http://www.w3.org/2000/svg" xmlns:xlink="http://www.w3.org/1999/xlink" width="300" height="48" viewBox="0 0 300 48"><defs><path id="a" d="M4.54747351e-13,16.0148563 L5.2164573,21.3812456 L40.892316,21.3812456 L40.892316,16.0148563 L4.54747351e-13,16.0148563 Z M25.5727773,41.6946784 L30.7888883,47.0615913 L40.8921602,47.0615913 L40.8921602,41.6946784 L25.5727773,41.6946784 Z M18.00282,34.2210694 L40.8923853,34.2210694 L40.8923853,28.8548546 L12.7863627,28.8548546 L18.00282,34.2210694 Z M247.725211,19.569762 C245.51155,16.831071 241.159539,15.4558792 236.509569,16.2139799 C232.389208,16.8853457 229.725231,19.6311919 227.945957,22.3916975 C228.551052,15.7298705 228.118223,8.02321188 228.248764,0.883383584 L217.942062,0.883383584 L217.942062,47.1032659 L228.248764,47.1032659 C228.96501,39.372524 226.006882,26.549384 232.341077,24.3750801 C233.563906,23.9550183 235.401526,23.8490867 236.812895,24.4513439 C239.717179,25.6911107 239.540412,30.0697354 239.540412,34.3663372 C239.540931,38.6793435 239.540412,42.8933989 239.540412,47.0273511 C242.87562,47.2053582 246.537874,47.052656 249.998777,47.1032659 C250.137455,42.3747352 250.074608,37.1648874 250.074608,32.1553848 C250.074608,27.0385543 250.069241,22.470579 247.725211,19.569762 M69.3246918,38.0977665 C67.4612756,38.9923393 64.3646425,39.0330017 62.670376,38.0241205 C60.8685947,36.9518897 59.601444,35.1201622 59.3791429,32.578326 C58.974361,27.9435108 61.0088313,24.5605041 65.1565468,24.1142648 C67.5002303,23.8619136 69.6068965,24.5453211 70.8603698,25.8069026 C74.1922888,29.160416 73.0449452,36.3124604 69.3246918,38.0977665 L69.3246918,38.0977665 Z M72.3224667,21.612393 C70.1491449,18.2772039 67.3021676,15.6212338 61.5730675,16.0187829 C56.2359374,16.3889329 52.612984,19.4405324 50.8240144,23.4519739 C48.9489984,27.6550347 48.7980276,34.1906861 50.5312488,38.8344016 C52.2082021,43.3273347 55.6446927,46.450137 60.3296358,47.003006 C66.3350541,47.712242 69.8200215,44.8822788 72.3957014,41.4095704 L72.3957014,47.1166164 L81.6828306,47.1166164 L81.6828306,16.9754836 L72.3224667,16.9754836 L72.3224667,21.612393 Z M140.355008,15.9407914 C134.951741,16.2524783 131.154617,18.7927438 128.745317,22.2247897 C126.287194,25.7254207 125.314194,31.226886 126.634323,36.3463341 C127.738903,40.6298472 130.710362,44.1599715 134.625561,45.8828006 C138.890314,47.7607751 145.524893,47.4796287 149.024403,45.1433732 L149.024403,36.3463341 C147.606628,37.5333969 146.096746,38.7302326 143.521413,38.7857289 C140.801514,38.8440175 138.804094,37.7503212 137.565683,35.9758351 C136.024985,33.7695947 135.95123,30.2434842 136.962493,27.8438792 C137.94311,25.5165242 140.077651,23.8132409 143.219817,23.8514601 C145.350549,23.8774631 146.957038,24.8411444 148.120136,25.6994177 C148.436102,25.9330956 148.803314,26.3320408 149.024403,26.2172088 L149.024403,17.788749 C146.826843,16.4413054 143.982289,15.7317204 140.355008,15.9407914 M171.433147,38.2924748 C167.620095,39.738695 163.672693,37.8144735 162.485356,34.8227333 C161.251273,31.7140669 162.008898,27.2143276 164.245239,25.3742232 C165.041299,24.7185639 166.110906,24.2081025 167.765872,24.0447548 C172.353688,23.592582 175.053677,26.2766492 175.39388,30.1723861 C175.767325,34.4340845 174.158759,37.2581142 171.433147,38.2924748 L171.433147,38.2924748 Z M174.954299,21.5348553 C172.762798,18.1752338 169.924478,15.5543416 164.172351,15.9246661 C155.879344,16.4592108 151.825639,23.1760106 151.849598,31.5006329 C151.875328,40.6528136 157.011279,48.6360812 167.032832,46.855487 C170.883454,46.1708579 173.069241,43.9464677 175.027361,41.3187694 L175.027361,47.1165641 L184.342537,47.1165641 L184.342537,16.8845081 L174.954299,16.8845081 L174.954299,21.5348553 Z M203.606223,27.5921738 C201.973418,27.120106 199.583855,26.5576386 199.425093,25.0079301 C199.274988,23.5379757 200.857758,22.8987209 202.21234,22.7936619 C205.681899,22.5249061 208.438155,23.8657181 210.426918,25.0822742 C210.688867,25.2421315 210.98925,25.5183915 211.306947,25.4517261 C212.023019,23.1941777 212.716931,20.9149893 213.360981,18.5858891 C209.566281,16.9332157 205.529716,15.6414429 200.671814,15.9281739 C196.035348,16.2026887 192.389022,18.2094565 190.916883,21.3174249 C190.487517,22.2235157 190.081523,24.0077747 190.110263,25.4517261 C190.217778,30.8121819 194.623979,32.7573453 198.984992,33.9403942 C200.151207,34.2566185 201.301148,34.4595814 202.506144,34.9002362 C203.276234,35.1808591 204.782307,35.7051073 204.999414,36.9677358 C205.336328,38.9235448 203.58285,39.6493598 201.992463,39.7725686 C197.648589,40.1092114 194.125533,38.330886 191.796912,36.5977604 C191.448051,36.3380795 191.177273,35.858682 190.697006,35.8595546 C190.084466,38.4912668 189.351254,41.0016899 188.642972,43.5365454 C192.738575,46.0972293 198.516844,47.6748605 204.486425,46.9319428 C209.882246,46.2617986 214.329653,42.9419669 214.314801,37.1148534 C214.298143,30.609917 208.792209,29.0888292 203.606223,27.5921738 M111.543456,23.8547236 L111.543456,16.9679445 L101.583537,16.9679445 L101.583537,47.1165815 L112.075317,47.1165815 C112.536366,39.9556367 110.614605,31.2203765 114.508509,27.4508152 C116.346821,25.6710936 120.403816,24.8068868 123.783865,26.0733547 C124.116451,22.8631195 124.483491,19.6865661 124.772447,16.4325272 C117.422315,15.3077669 113.490495,19.2925073 111.543456,23.8547236 M91.3952578,1.50881663 C88.3204393,1.83952582 86.0034181,4.03477172 86.1495412,7.55372698 C86.2835451,10.8007852 88.8382761,13.2230773 92.0032962,13.2161117 C95.1035651,13.2092905 97.4877613,10.8007852 97.7820852,8.16575714 C98.2467706,3.99463287 95.2325482,1.09591005 91.3952578,1.50881663 M86.6814883,17.1975213 L86.6814883,47.1164943 L97.2494456,47.1164943 L97.2494456,16.9678573 L86.7574931,16.9678573 C86.6686765,16.9807715 86.6747361,17.0889719 86.6814883,17.1975213 M300,16.0148389 L294.783196,21.3812282 L259.107511,21.3812282 L259.107511,16.0148389 L300,16.0148389 Z M269.210783,47.0615215 L259.107857,47.0615215 L259.107857,41.6947831 L274.427067,41.6947831 L269.210783,47.0615215 Z M281.997007,34.2210694 L259.107442,34.2210694 L259.107442,28.8548546 L287.213118,28.8548546 L281.997007,34.2210694 Z"/></defs><g fill="none" fill-rule="evenodd"><mask id="b" fill="#fff"><use xlink:href="#a"/></mask><use xlink:href="#a" fill="#FFF"/><g fill="#E40000" mask="url(#b)"><rect width="300" height="48"/></g></g></svg>