<svg xmlns="http://www.w3.org/2000/svg" xmlns:xlink="http://www.w3.org/1999/xlink" width="280" height="72" viewBox="0 0 280 72"><defs><path id="a" d="M2.42620738e-13,8.00742816 L2.59084046,10.6906228 L20.3098503,10.6906228 L20.3098503,8.00742816 L2.42620738e-13,8.00742816 Z M12.7011461,20.8473392 L15.2918145,23.5307956 L20.3097729,23.5307956 L20.3097729,20.8473392 L12.7011461,20.8473392 Z M8.94140058,17.1105347 L20.3098847,17.1105347 L20.3098847,14.4274273 L6.35056013,14.4274273 L8.94140058,17.1105347 Z M123.036855,9.78488101 C121.937403,8.41553552 119.775904,7.72793962 117.466419,8.10698995 C115.419973,8.44267287 114.096865,9.81559595 113.213158,11.1958487 C113.513689,7.86493525 113.298717,4.01160594 113.363553,0.441691792 L108.244558,0.441691792 L108.244558,23.5516329 L113.363553,23.5516329 C113.719288,19.686262 112.250085,13.274692 115.396068,12.18754 C116.003407,11.9775092 116.916091,11.9245433 117.617071,12.2256719 C119.059532,12.8455554 118.971738,15.0348677 118.971738,17.1831686 C118.971996,19.3396718 118.971738,21.4466995 118.971738,23.5136756 C120.628225,23.6026791 122.447144,23.526328 124.166059,23.5516329 C124.234936,21.1873676 124.203722,18.5824437 124.203722,16.0776924 C124.203722,13.5192772 124.201056,11.2352895 123.036855,9.78488101 M34.4312636,19.0488833 C33.5057669,19.4961696 31.9677725,19.5165008 31.1262867,19.0120602 C30.231402,18.4759449 29.6020505,17.5600811 29.491641,16.289163 C29.2905993,13.9717554 30.3010529,12.280252 32.3610849,12.0571324 C33.5251144,11.9309568 34.5714252,12.2726606 35.1939837,12.9034513 C36.8488368,14.580208 36.2789895,18.1562302 34.4312636,19.0488833 L34.4312636,19.0488833 Z M35.9201585,10.8061965 C34.8407419,9.13860195 33.4267433,7.81061692 30.5812902,8.00939147 C27.9305156,8.19446646 26.1311154,9.72026619 25.2425938,11.7259869 C24.3113359,13.8275173 24.2363537,17.095343 25.0971869,19.4172008 C25.9300737,21.6636674 27.636864,23.2250685 29.9637191,23.501503 C32.9464102,23.856121 34.6772774,22.4411394 35.9565317,20.7047852 L35.9565317,23.5583082 L40.5691392,23.5583082 L40.5691392,8.48774182 L35.9201585,8.48774182 L35.9201585,10.8061965 Z M69.7096538,7.97039571 C67.0260315,8.12623914 65.1401267,9.39637188 63.9435075,11.1123948 C62.7226395,12.8627103 62.2393828,15.613443 62.8950469,18.1731671 C63.443655,20.3149236 64.9194796,22.0799857 66.8640287,22.9414003 C68.9821891,23.8803876 72.2773633,23.7398143 74.0154535,22.5716866 L74.0154535,18.1731671 C73.3112918,18.7666984 72.5613841,19.3651163 71.2823017,19.3928645 C69.9314187,19.4220088 68.9393667,18.8751606 68.3242894,17.9879176 C67.5590756,16.8847973 67.5224444,15.1217421 68.0247046,13.9219396 C68.5117448,12.7582621 69.5718999,11.9066205 71.1325093,11.92573 C72.1907726,11.9387315 72.9886621,12.4205722 73.5663344,12.8497089 C73.7232638,12.9665478 73.9056459,13.1660204 74.0154535,13.1086044 L74.0154535,8.89437451 C72.9239985,8.22065269 71.5112037,7.86586019 69.7096538,7.97039571 M85.1451297,19.1462374 C83.2513139,19.8693475 81.2907708,18.9072368 80.7010601,17.4113666 C80.0881324,15.8570334 80.4644191,13.6071638 81.5751356,12.6871116 C81.9705118,12.3592819 82.5017501,12.1040512 83.3237164,12.0223774 C85.6023318,11.796291 86.943326,13.1383246 87.1122939,15.086193 C87.2977716,17.2170423 86.4988503,18.6290571 85.1451297,19.1462374 L85.1451297,19.1462374 Z M86.8939685,10.7674276 C85.8055232,9.08761688 84.3958239,7.77717079 81.5389343,7.96233303 C77.4200741,8.2296054 75.406734,11.5880053 75.4186335,15.7503165 C75.4314127,20.3264068 77.9822684,24.3180406 82.9596401,23.4277435 C84.8721155,23.085429 85.9577232,21.9732339 86.9302558,20.6593847 L86.9302558,23.558282 L91.5567934,23.558282 L91.5567934,8.44225403 L86.8939685,8.44225403 L86.8939685,10.7674276 Z M101.124424,13.7960869 C100.313464,13.560053 99.126648,13.2788193 99.0477963,12.503965 C98.9732441,11.7689878 99.759353,11.4493605 100.432129,11.3968309 C102.155343,11.262453 103.524284,11.9328591 104.512036,12.5411371 C104.642137,12.6210658 104.791328,12.7591958 104.949117,12.7258631 C105.304766,11.5970889 105.649409,10.4574947 105.969287,9.29294454 C104.084586,8.46660784 102.079759,7.82072144 99.6670011,7.96408693 C97.3642229,8.10134433 95.5532143,9.10472825 94.8220521,10.6587124 C94.6088,11.1117579 94.4071565,12.0038874 94.4214306,12.7258631 C94.4748296,15.4060909 96.6632428,16.3786726 98.8292129,16.9701971 C99.408433,17.1283092 99.9795702,17.2297907 100.578052,17.4501181 C100.96053,17.5904295 101.708546,17.8525537 101.816375,18.4838679 C101.98371,19.4617724 101.112816,19.8246799 100.322923,19.8862843 C98.1654659,20.0546057 96.4156812,19.165443 95.2591328,18.2988802 C95.0858655,18.1690397 94.9513791,17.929341 94.7128464,17.9297773 C94.4086183,19.2456334 94.044456,20.500845 93.6926761,21.7682727 C95.7268255,23.0486147 98.5966994,23.8374303 101.561591,23.4659714 C104.241516,23.1308993 106.450394,21.4709835 106.443018,18.5574267 C106.434744,15.3049585 103.700131,14.5444146 101.124424,13.7960869 M55.3999166,11.9273618 L55.3999166,8.48397225 L50.4531569,8.48397225 L50.4531569,23.5582908 L55.6640739,23.5582908 C55.8930619,19.9778183 54.938587,15.6101882 56.8725596,13.7254076 C57.7855879,12.8355468 59.8005618,12.4034434 61.4793198,13.0366773 C61.6445042,11.4315598 61.8268003,9.84328303 61.9703155,8.2162636 C58.3197499,7.65388345 56.3669458,9.64625365 55.3999166,11.9273618 M45.392978,0.754408313 C43.8658182,0.919762911 42.715031,2.01738586 42.7876055,3.77686349 C42.8541607,5.40039259 44.1230105,6.61153867 45.6949704,6.60805586 C47.2347706,6.60464526 48.4189215,5.40039259 48.5651023,4.08287857 C48.7958961,1.99731644 47.2988322,0.547955026 45.392978,0.754408313 M43.0518058,8.59876063 L43.0518058,23.5582471 L48.300558,23.5582471 L48.300558,8.48392863 L43.0895549,8.48392863 C43.0454427,8.49038574 43.0484523,8.54448593 43.0518058,8.59876063 M149,8.00741943 L146.408988,10.6906141 L128.690064,10.6906141 L128.690064,8.00741943 L149,8.00741943 Z M133.708022,23.5307607 L128.690236,23.5307607 L128.690236,20.8473916 L136.298777,20.8473916 L133.708022,23.5307607 Z M140.058513,17.1105347 L128.690029,17.1105347 L128.690029,14.4274273 L142.649182,14.4274273 L140.058513,17.1105347 Z"/></defs><g fill="none" fill-rule="evenodd"><rect width="280" height="72" fill="#E40000" rx="16"/><g transform="translate(28.614 22)"><g transform="translate(75.386)"><mask id="b" fill="#fff"><use xlink:href="#a"/></mask><use xlink:href="#a" fill="#FFF"/><g fill="#FFF" mask="url(#b)"><rect width="149" height="24"/></g></g><g fill="#FFF" fill-rule="nonzero" transform="translate(0 7.142)"><path d="M0 .861328125 0 12.8583984 2.37304688 12.8583984 2.37304688 8.83300781 4.77246094 8.83300781C7.35644531 8.83300781 8.85058594 7.14550781 8.85058594 4.86035156 8.85058594 2.61035156 7.37402344.861328125 4.79882812.861328125L0 .861328125ZM2.36425781 2.75097656 4.34179688 2.75097656C5.65136719 2.75097656 6.43359375 3.515625 6.43359375 4.86035156 6.43359375 6.48632812 5.44042969 6.96972656 3.78808594 6.96972656L2.36425781 6.96972656 2.36425781 2.75097656ZM15.4775391 11.7246094 15.5742188 11.7246094 15.5742188 12.8583984 17.7626953 12.8583984 17.7626953 6.55664062C17.7626953 4.38574219 16.1279297 3.38378906 13.9833984 3.38378906 11.2939453 3.38378906 10.2919922 4.82519531 10.2216797 6.38085938L12.3837891 6.38085938C12.4453125 5.63378906 12.9902344 5.1328125 13.9394531 5.1328125 14.9150391 5.1328125 15.4775391 5.65136719 15.4775391 6.58300781L15.4775391 7.42675781 13.2011719 7.42675781C11.0390625 7.42675781 9.87890625 8.49902344 9.87890625 10.1689453 9.87890625 11.9267578 11.1269531 12.9990234 12.9462891 12.9990234 14.3173828 12.9990234 15.1083984 12.4101562 15.4775391 11.7246094ZM13.6933594 11.3115234C12.9199219 11.3115234 12.1816406 10.8896484 12.1816406 10.0195312 12.1816406 9.30761719 12.6826172 8.81542969 13.7021484 8.81542969L15.4775391 8.81542969 15.4775391 9.79980469C15.4775391 10.7050781 14.6865234 11.3115234 13.6933594 11.3115234ZM27.9228516 3.53320312 25.4707031 3.53320312 23.4404297 10.7666016 23.3525391 10.7666016 21.3662109 3.53320312 18.8085938 3.53320312 22.0429688 12.8759766 21.9550781 13.2099609C21.7880859 14.0712891 21.3046875 14.4140625 20.25 14.4140625 19.96875 14.4140625 19.6435547 14.3876953 19.4941406 14.3613281L19.4941406 16.03125C19.7753906 16.0927734 20.2763672 16.1279297 20.671875 16.1279297 22.6933594 16.1279297 23.8183594 15.3808594 24.6269531 13.2363281L24.8642578 12.5947266C24.8818359 12.5419922 27.2724609 5.64257812 27.9228516 3.53320312Z"/><polygon points="45.053 3.533 42.741 3.533 41.353 10.415 41.256 10.415 39.489 3.533 37.31 3.533 35.543 10.415 35.455 10.415 34.066 3.533 31.729 3.533 34.11 12.858 36.563 12.858 38.355 6.223 38.426 6.223 40.219 12.858 42.662 12.858"/><path d="M46.6259766 12.8583984 48.9375 12.8583984 48.9375 3.53320312 46.6259766 3.53320312 46.6259766 12.8583984ZM46.4677734 1.22167969C46.4677734 1.94238281 47.0654297 2.43457031 47.7773438 2.43457031 48.4980469 2.43457031 49.0869141 1.94238281 49.0869141 1.22167969 49.0869141.500976562 48.4980469 0 47.7773438 0 47.0654297 0 46.4677734.500976562 46.4677734 1.22167969ZM51.9785156 3.53320312 50.6162109 3.53320312 50.6162109 5.32617188 51.9345703 5.32617188 51.9345703 10.2216797C51.9345703 12.1289062 52.6992188 12.9111328 55.0195312 12.9111328 55.4853516 12.9111328 55.8984375 12.8671875 56.0742188 12.8320312L56.0742188 11.1181641C55.96875 11.1269531 55.7753906 11.1357422 55.5820312 11.1357422 54.6240234 11.1357422 54.2285156 10.8544922 54.2285156 9.92285156L54.2285156 5.32617188 56.0390625 5.32617188 56.0390625 3.53320312 54.2285156 3.53320312 54.2285156 1.30078125 51.9785156 1.30078125 51.9785156 3.53320312ZM58.0605469 12.8583984 60.3720703 12.8583984 60.3720703 7.39160156C60.3720703 6.21386719 61.03125 5.35253906 62.2265625 5.35253906 63.2373047 5.35253906 64.0546875 5.92382812 64.0546875 7.35644531L64.0546875 12.8583984 66.3662109 12.8583984 66.3662109 6.85546875C66.3662109 4.5703125 65.0214844 3.38378906 63.140625 3.38378906 61.59375 3.38378906 60.7675781 4.25390625 60.46875 4.89550781L60.3720703 4.89550781 60.3720703.228515625 58.0605469.228515625 58.0605469 12.8583984Z"/></g></g></g></svg>