<?xml version="1.0" encoding="utf-8"?>
<!-- Generator: Adobe Illustrator 26.2.1, SVG Export Plug-In . SVG Version: 6.00 Build 0)  -->
<svg version="1.1" id="Layer_1" xmlns="http://www.w3.org/2000/svg" xmlns:xlink="http://www.w3.org/1999/xlink" x="0px" y="0px"
	 viewBox="0 0 256 256" style="enable-background:new 0 0 256 256;" xml:space="preserve">
<style type="text/css">
	.st0{fill:#E40000;}
	.st1{fill:#FFFFFF;}
</style>
<g>
	<path class="st0" d="M216,0H40C17.9,0,0,17.9,0,40v176c0,22.1,17.9,40,40,40h176c22.1,0,40-17.9,40-40V40C256,17.9,238.1,0,216,0z"
		/>
	<g>
		<g>
			<g>
				<g>
					<polygon class="st1" points="21.7,89.5 25.4,93.3 50.7,93.3 50.7,89.5 					"/>
				</g>
				<g>
					<polygon class="st1" points="43.5,111.3 50.7,111.3 50.7,107.6 39.8,107.6 					"/>
				</g>
				<g>
					<polygon class="st1" points="34.4,102.3 50.7,102.3 50.7,98.5 30.7,98.5 					"/>
				</g>
				<g>
					<path class="st1" d="M197.3,92c-1.6-1.9-4.7-2.9-8-2.4c-2.9,0.5-4.8,2.4-6.1,4.3c0.4-4.7,0.1-10.1,0.2-15.1c-2.4,0-4.9,0-7.3,0
						c0,10.8,0,21.7,0,32.5c2.4,0,4.9,0,7.3,0c0.5-5.4-1.6-14.5,2.9-16c0.9-0.3,2.2-0.4,3.2,0.1c2.1,0.9,1.9,4,1.9,7c0,3,0,6,0,8.9
						c2.4,0.1,5,0,7.4,0.1c0.1-3.3,0.1-7,0.1-10.5C198.9,97.3,198.9,94.1,197.3,92z"/>
				</g>
				<g>
					<path class="st1" d="M72.9,93.5c-1.5-2.3-3.6-4.2-7.6-3.9c-3.8,0.3-6.4,2.4-7.6,5.2c-1.3,3-1.4,7.6-0.2,10.8
						c1.2,3.2,3.6,5.4,6.9,5.7c4.3,0.5,6.7-1.5,8.6-3.9c0,1.1,0,2.9,0,4c2.2,0,4.4,0,6.6,0c0-6.8,0-14.4,0-21.2c-2.2,0-4.4,0-6.6,0
						C72.9,91.3,72.9,92.4,72.9,93.5z M70.8,105c-1.3,0.6-3.5,0.7-4.7-0.1c-1.3-0.8-2.2-2-2.3-3.8c-0.3-3.3,1.2-5.6,4.1-6
						c1.7-0.2,3.2,0.3,4,1.2C74.3,98.8,73.4,103.8,70.8,105z"/>
				</g>
				<g>
					<path class="st1" d="M121.2,89.5c-3.8,0.2-6.5,2-8.2,4.4c-1.7,2.5-2.4,6.3-1.5,9.9c0.8,3,2.9,5.5,5.7,6.7
						c3,1.3,7.7,1.1,10.2-0.5c0-2.1,0-4.1,0-6.2c-1,0.8-2.1,1.7-3.9,1.7c-1.9,0-3.3-0.7-4.2-2c-1.1-1.6-1.1-4-0.4-5.7
						c0.7-1.6,2.2-2.8,4.4-2.8c1.5,0,2.6,0.7,3.5,1.3c0.2,0.2,0.5,0.4,0.6,0.4c0-2,0-4,0-5.9C125.8,89.8,123.7,89.3,121.2,89.5z"/>
				</g>
				<g>
					<path class="st1" d="M145.7,93.4c-1.6-2.4-3.6-4.2-7.6-3.9c-5.9,0.4-8.8,5.1-8.7,11c0,6.4,3.7,12.1,10.8,10.8
						c2.7-0.5,4.3-2,5.7-3.9c0,1.1,0,3,0,4.1c2.2,0,4.4,0,6.6,0c0-6.8,0-14.4,0-21.3c-2.2,0-4.4,0-6.7,0
						C145.7,91.2,145.7,92.3,145.7,93.4z M143.2,105.2c-2.7,1-5.5-0.3-6.3-2.4c-0.9-2.2-0.3-5.4,1.2-6.6c0.6-0.5,1.3-0.8,2.5-0.9
						c3.3-0.3,5.2,1.6,5.4,4.3C146.3,102.5,145.1,104.5,143.2,105.2z"/>
				</g>
				<g>
					<path class="st1" d="M166,97.7c-1.2-0.3-2.9-0.7-3-1.8c-0.1-1,1-1.5,2-1.6c2.5-0.2,4.4,0.8,5.8,1.6c0.2,0.1,0.4,0.3,0.6,0.3
						c0.5-1.6,1-3.2,1.5-4.8c-2.7-1.2-5.6-2.1-9-1.9c-3.3,0.2-5.9,1.6-6.9,3.8c-0.3,0.6-0.6,1.9-0.6,2.9c0.1,3.8,3.2,5.1,6.3,6
						c0.8,0.2,1.6,0.4,2.5,0.7c0.5,0.2,1.6,0.6,1.8,1.5c0.2,1.4-1,1.9-2.1,2c-3.1,0.2-5.6-1-7.2-2.2c-0.2-0.2-0.4-0.5-0.8-0.5
						c-0.4,1.9-1,3.6-1.5,5.4c2.9,1.8,7,2.9,11.2,2.4c3.8-0.5,7-2.8,7-6.9C173.6,99.8,169.7,98.7,166,97.7z"/>
				</g>
				<g>
					<path class="st1" d="M100.7,95c0-1.6,0-3.2,0-4.8c-2.4,0-4.7,0-7.1,0c0,7.1,0,14.1,0,21.2c2.5,0,5,0,7.4,0
						c0.3-5-1-11.2,1.7-13.8c1.3-1.3,4.2-1.9,6.6-1c0.2-2.3,0.5-4.5,0.7-6.8C104.9,89,102.1,91.8,100.7,95z"/>
				</g>
				<g>
					<g>
						<path class="st1" d="M86.5,79.3c-2.2,0.2-3.8,1.8-3.7,4.3c0.1,2.3,1.9,4,4.1,4c2.2,0,3.9-1.7,4.1-3.6
							C91.3,81.1,89.2,79,86.5,79.3z"/>
					</g>
					<g>
						<path class="st1" d="M83.1,90.3c0,7,0,14,0,21c2.5,0,5,0,7.5,0c0-7.1,0-14.1,0-21.2c-2.5,0-5,0-7.4,0
							C83.1,90.2,83.1,90.3,83.1,90.3z"/>
					</g>
				</g>
				<g>
					<polygon class="st1" points="234.3,89.5 230.6,93.3 205.3,93.3 205.3,89.5 					"/>
				</g>
				<g>
					<polygon class="st1" points="212.5,111.3 205.3,111.3 205.3,107.6 216.2,107.6 					"/>
				</g>
				<g>
					<polygon class="st1" points="221.6,102.3 205.3,102.3 205.3,98.5 225.3,98.5 					"/>
				</g>
			</g>
		</g>
		<g>
			<path class="st1" d="M35.6,131.9c0-3.2,2-4.9,4.9-4.9c2.9,0,4.8,1.7,4.8,5h-1.5c0-2.4-1.3-3.5-3.3-3.5c-2,0-3.3,1.1-3.3,3.4v2.1
				H44v1.4h-6.8v8.5h-1.6V131.9z"/>
			<path class="st1" d="M45.8,138.2c0-3.6,2.6-6.1,6.2-6.1s6.2,2.5,6.2,6.1v5.7h-1.4V141c-0.8,2.1-2.7,3.2-5,3.2
				C48.5,144.2,45.8,141.9,45.8,138.2z M56.6,138.1c0-2.7-1.9-4.6-4.6-4.6s-4.6,2-4.6,4.6s1.9,4.6,4.6,4.6S56.6,140.8,56.6,138.1z"
				/>
			<path class="st1" d="M60.1,140.6h1.6c0.1,1.2,1.2,2.1,3.1,2.1c2,0,3.1-0.9,3.1-2.2c0-1.4-1.5-1.6-3.1-1.8
				c-2.1-0.3-4.4-0.6-4.4-3.1c0-2.2,1.7-3.6,4.4-3.6s4.4,1.5,4.4,3.5h-1.5c-0.1-1.1-1.1-2-2.9-2s-2.8,0.9-2.8,2.1
				c0,1.4,1.5,1.6,3.1,1.8c1.8,0.2,4.5,0.5,4.5,3.1c0,2.2-1.8,3.7-4.7,3.7C61.9,144.2,60.1,142.6,60.1,140.6z"/>
			<path class="st1" d="M71.4,139.6v-11.4H73v4.1h6.8v1.4H73v5.9c0,2.1,1.2,3.1,3,3.1c1.8,0,3-1,3-3.1v-0.3h1.5v0.3
				c0,3-1.8,4.6-4.5,4.6C73.3,144.2,71.4,142.6,71.4,139.6z"/>
			<path class="st1" d="M81.9,138.1c0-3.5,2.6-6.1,6.2-6.1s6.2,2.6,6.2,6.1v0.5H83.5c0.2,2.4,2,4.1,4.6,4.1c1.8,0,3.2-0.7,4-2.1h1.7
				c-0.9,2.1-3,3.5-5.7,3.5C84.5,144.2,81.9,141.6,81.9,138.1z M92.7,137.2c-0.4-2.3-2.2-3.7-4.5-3.7c-2.4,0-4.2,1.5-4.6,3.7H92.7z"
				/>
			<path class="st1" d="M96.1,136.9c0-3.3,2-4.9,4.9-4.9s4.8,1.6,4.8,5v0.1h-1.5v-0.2c0-2.4-1.3-3.5-3.3-3.5c-2,0-3.3,1.1-3.3,3.5
				v6.9h-1.6V136.9z"/>
			<path class="st1" d="M113.1,138.2c0-3.6,2.6-6.1,6.2-6.1s6.2,2.5,6.2,6.1v5.7h-1.4V141c-0.8,2.1-2.7,3.2-5,3.2
				C115.8,144.2,113.1,141.9,113.1,138.2z M123.9,138.1c0-2.7-1.9-4.6-4.6-4.6s-4.6,2-4.6,4.6s1.9,4.6,4.6,4.6
				S123.9,140.8,123.9,138.1z"/>
			<path class="st1" d="M127.8,137.8c0-3.8,2.3-5.8,5.7-5.8c3.4,0,5.7,2,5.7,5.8v6h-1.6v-6c0-2.8-1.6-4.4-4.1-4.4s-4.1,1.5-4.1,4.4
				v6h-1.6V137.8z"/>
			<path class="st1" d="M141,138c0-3.6,2.6-6,6-6c2.2,0,4,1,4.9,2.8v-7.5h1.6V138c0,3.7-2.6,6.1-6.2,6.1
				C143.6,144.2,141,141.6,141,138z M151.8,138.1c0-2.7-1.8-4.6-4.6-4.6c-2.8,0-4.6,2-4.6,4.6s1.9,4.6,4.6,4.6
				C150,142.7,151.8,140.8,151.8,138.1z"/>
			<path class="st1" d="M161.5,140.6h1.6c0.1,1.2,1.2,2.1,3.1,2.1c2,0,3.1-0.9,3.1-2.2c0-1.4-1.5-1.6-3.1-1.8
				c-2.1-0.3-4.4-0.6-4.4-3.1c0-2.2,1.7-3.6,4.4-3.6s4.4,1.5,4.4,3.5h-1.5c-0.1-1.1-1.1-2-2.9-2s-2.8,0.9-2.8,2.1
				c0,1.4,1.5,1.6,3.1,1.8c1.8,0.2,4.5,0.5,4.5,3.1c0,2.2-1.8,3.7-4.7,3.7C163.4,144.2,161.6,142.6,161.5,140.6z"/>
			<path class="st1" d="M172.4,138.2c0-3.6,2.6-6.1,6.2-6.1s6.2,2.5,6.2,6.1v5.7h-1.4V141c-0.8,2.1-2.7,3.2-5,3.2
				C175.1,144.2,172.4,141.9,172.4,138.2z M183.2,138.1c0-2.7-1.9-4.6-4.6-4.6s-4.6,2-4.6,4.6s1.9,4.6,4.6,4.6
				S183.2,140.8,183.2,138.1z"/>
			<path class="st1" d="M187.4,131.9c0-3.2,2-4.9,4.9-4.9c2.9,0,4.8,1.7,4.8,5h-1.5c0-2.4-1.3-3.5-3.3-3.5c-2,0-3.3,1.1-3.3,3.4v2.1
				h6.8v1.4H189v8.5h-1.6V131.9z"/>
			<path class="st1" d="M197.6,138.1c0-3.5,2.6-6.1,6.2-6.1s6.2,2.6,6.2,6.1v0.5h-10.8c0.2,2.4,2,4.1,4.6,4.1c1.8,0,3.2-0.7,4-2.1
				h1.7c-0.9,2.1-3,3.5-5.7,3.5C200.1,144.2,197.6,141.6,197.6,138.1z M208.3,137.2c-0.4-2.3-2.2-3.7-4.5-3.7
				c-2.4,0-4.2,1.5-4.6,3.7H208.3z"/>
			<path class="st1" d="M211.8,136.9c0-3.3,2-4.9,4.9-4.9s4.8,1.6,4.8,5v0.1h-1.5v-0.2c0-2.4-1.3-3.5-3.3-3.5c-2,0-3.3,1.1-3.3,3.5
				v6.9h-1.6V136.9z"/>
			<path class="st1" d="M73.3,166.2c0-3.7,2.6-6.1,6.2-6.1c3.7,0,6.2,2.6,6.2,6.1s-2.6,6-6,6c-2.2,0-4-1-4.9-2.8v7.4h-1.6V166.2z
				 M84.1,166.1c0-2.7-1.9-4.6-4.6-4.6c-2.8,0-4.6,2-4.6,4.6s1.8,4.6,4.6,4.6C82.2,170.7,84.1,168.8,84.1,166.1z"/>
			<path class="st1" d="M87,166.2c0-3.6,2.6-6.1,6.2-6.1s6.2,2.5,6.2,6.1v5.7H98V169c-0.8,2.1-2.7,3.2-5,3.2
				C89.7,172.2,87,169.9,87,166.2z M97.8,166.1c0-2.7-1.9-4.6-4.6-4.6s-4.6,2-4.6,4.6s1.9,4.6,4.6,4.6S97.8,168.8,97.8,166.1z"/>
			<path class="st1" d="M101.8,173.4h1.6c0.6,1.6,2,2.3,3.9,2.3c2.5,0,4.2-1.2,4.2-4.2v-1.9c-0.8,1.7-2.4,2.5-4.4,2.5
				c-3.1,0-5.5-1.9-5.5-5.8v-6h1.6v6c0,2.8,1.6,4.4,4.1,4.4c2.5,0,4.1-1.5,4.1-4.4v-6h1.6v11.1c0,4-2.5,5.7-5.8,5.7
				C104.7,177.1,102.5,175.9,101.8,173.4z"/>
			<path class="st1" d="M115.8,165.1c0-3.4,2-5.1,4.7-5.1c1.9,0,3.4,0.9,4.2,2.6c0.7-1.7,2.3-2.6,4.2-2.6c2.7,0,4.7,1.7,4.7,5.1v6.8
				h-1.6v-6.8c0-2.5-1.4-3.6-3.2-3.6s-3.2,1.2-3.2,3.6v6.8h-1.6v-6.8c0-2.4-1.4-3.6-3.3-3.6s-3.2,1.2-3.2,3.6v6.8h-1.6V165.1z"/>
			<path class="st1" d="M135.2,166.1c0-3.5,2.6-6.1,6.2-6.1s6.2,2.6,6.2,6.1v0.5h-10.8c0.2,2.4,2,4.1,4.6,4.1c1.8,0,3.2-0.7,4-2.1
				h1.7c-0.9,2.1-3,3.5-5.7,3.5C137.8,172.2,135.2,169.6,135.2,166.1z M146,165.2c-0.4-2.3-2.2-3.7-4.5-3.7c-2.4,0-4.2,1.5-4.6,3.7
				H146z"/>
			<path class="st1" d="M149.4,165.9c0-3.8,2.3-5.8,5.7-5.8c3.4,0,5.7,2,5.7,5.8v6h-1.6v-6c0-2.8-1.6-4.4-4.1-4.4s-4.1,1.5-4.1,4.4
				v6h-1.6V165.9z"/>
			<path class="st1" d="M163.1,167.6v-11.4h1.6v4.1h6.8v1.4h-6.8v5.9c0,2.1,1.2,3.1,3,3.1c1.8,0,3-1,3-3.1v-0.3h1.5v0.3
				c0,3-1.8,4.6-4.5,4.6C165,172.2,163.1,170.7,163.1,167.6z"/>
			<path class="st1" d="M173.7,168.6h1.6c0.1,1.2,1.2,2.1,3.1,2.1c2,0,3.1-0.9,3.1-2.2c0-1.4-1.5-1.6-3.1-1.8
				c-2.1-0.3-4.4-0.6-4.4-3.1c0-2.2,1.7-3.6,4.4-3.6s4.4,1.5,4.4,3.5h-1.5c-0.1-1.1-1.1-2-2.9-2s-2.8,0.9-2.8,2.1
				c0,1.4,1.5,1.6,3.1,1.8c1.8,0.2,4.5,0.5,4.5,3.1c0,2.2-1.8,3.7-4.7,3.7C175.6,172.2,173.8,170.7,173.7,168.6z"/>
		</g>
	</g>
</g>
</svg>
