<svg xmlns="http://www.w3.org/2000/svg" xmlns:xlink="http://www.w3.org/1999/xlink" width="200" height="56" viewBox="0 0 200 56"><defs><path id="a" d="M28.3683333,20.8985 C28.3683333,16.8735 31.6833333,15.2151667 31.6833333,15.2151667 C31.6833333,15.2151667 29.9883333,12.2135 25.6783333,12.2135 C23.175,12.2135 21.25,13.6085 20.2133333,13.6085 C19.0066667,13.6085 17.2033333,12.2985 14.88,12.2985 C11.3083333,12.2985 7.5,15.4268333 7.5,21.3935 C7.5,27.4568333 12,35.0001667 15.56,35.0001667 C16.805,35.0001667 18.7133333,33.7751667 20.6366667,33.7751667 C22.525,33.7751667 23.9183333,34.9568333 25.71,34.9568333 C29.6116667,34.9568333 32.5,27.0035 32.5,27.0035 C32.5,27.0035 28.3683333,25.4401667 28.3683333,20.8985 Z M24.5238333,9.795 C26.5255,7.44333333 26.1088333,5 26.1088333,5 C26.1088333,5 23.3088333,5.01333333 21.2938333,7.61 C19.5005,9.92 19.9571667,11.8966667 19.9571667,11.8966667 C19.9571667,11.8966667 22.3871667,12.3083333 24.5238333,9.795 Z"/></defs><g fill="none" fill-rule="evenodd"><rect width="200" height="56" fill="#000" rx="8"/><path fill="#FFF" fill-rule="nonzero" d="M0 14.994 6.594.189 8.4.189 15.015 14.994 12.789 14.994 11.235 11.382 3.738 11.382 2.205 14.994 0 14.994ZM7.476 2.604 4.515 9.618 10.5 9.618 7.518 2.604 7.476 2.604ZM16.116 18.774 16.116 4.746 18.195 4.746 18.195 6.489C18.489 5.901 18.937 5.432 19.539 5.082 20.141 4.732 20.834 4.557 21.618 4.557 22.528 4.557 23.3225 4.774 24.0015 5.208 24.6805 5.642 25.2055 6.2545 25.5765 7.0455 25.9475 7.8365 26.133 8.778 26.133 9.87 26.133 10.962 25.9475 11.907 25.5765 12.705 25.2055 13.503 24.6805 14.1155 24.0015 14.5425 23.3225 14.9695 22.528 15.183 21.618 15.183 20.862 15.183 20.1865 15.0185 19.5915 14.6895 18.9965 14.3605 18.545 13.909 18.237 13.335L18.237 18.774 16.116 18.774ZM21.093 13.545C21.975 13.545 22.6785 13.23 23.2035 12.6 23.7285 11.97 23.991 11.06 23.991 9.87 23.991 8.68 23.7285 7.7735 23.2035 7.1505 22.6785 6.5275 21.975 6.216 21.093 6.216 20.211 6.216 19.5075 6.5275 18.9825 7.1505 18.4575 7.7735 18.195 8.68 18.195 9.87 18.195 11.06 18.4575 11.97 18.9825 12.6 19.5075 13.23 20.211 13.545 21.093 13.545ZM27.927 18.774 27.927 4.746 30.006 4.746 30.006 6.489C30.3 5.901 30.748 5.432 31.35 5.082 31.952 4.732 32.645 4.557 33.429 4.557 34.339 4.557 35.1335 4.774 35.8125 5.208 36.4915 5.642 37.0165 6.2545 37.3875 7.0455 37.7585 7.8365 37.944 8.778 37.944 9.87 37.944 10.962 37.7585 11.907 37.3875 12.705 37.0165 13.503 36.4915 14.1155 35.8125 14.5425 35.1335 14.9695 34.339 15.183 33.429 15.183 32.673 15.183 31.9975 15.0185 31.4025 14.6895 30.8075 14.3605 30.356 13.909 30.048 13.335L30.048 18.774 27.927 18.774ZM32.904 13.545C33.786 13.545 34.4895 13.23 35.0145 12.6 35.5395 11.97 35.802 11.06 35.802 9.87 35.802 8.68 35.5395 7.7735 35.0145 7.1505 34.4895 6.5275 33.786 6.216 32.904 6.216 32.022 6.216 31.3185 6.5275 30.7935 7.1505 30.2685 7.7735 30.006 8.68 30.006 9.87 30.006 11.06 30.2685 11.97 30.7935 12.6 31.3185 13.23 32.022 13.545 32.904 13.545ZM49.827 15.183C48.665 15.183 47.601 15.0325 46.635 14.7315 45.669 14.4305 44.85 14.007 44.178 13.461L44.871 11.739C45.571 12.271 46.32 12.67 47.118 12.936 47.916 13.202 48.819 13.335 49.827 13.335 51.017 13.335 51.8955 13.1215 52.4625 12.6945 53.0295 12.2675 53.313 11.711 53.313 11.025 53.313 10.465 53.11 10.0205 52.704 9.6915 52.298 9.3625 51.619 9.1 50.667 8.904L48.42 8.442C47.09 8.162 46.0995 7.7 45.4485 7.056 44.7975 6.412 44.472 5.544 44.472 4.452 44.472 3.57 44.7065 2.793 45.1755 2.121 45.6445 1.449 46.299.9275 47.139.5565 47.979.1855 48.945 0 50.037 0 51.045 0 51.9795.1505 52.8405.4515 53.7015.7525 54.433 1.19 55.035 1.764L54.321 3.423C53.131 2.373 51.696 1.848 50.016 1.848 48.98 1.848 48.1575 2.079 47.5485 2.541 46.9395 3.003 46.635 3.619 46.635 4.389 46.635 4.977 46.824 5.446 47.202 5.796 47.58 6.146 48.21 6.412 49.092 6.594L51.318 7.056C52.718 7.35 53.761 7.8015 54.447 8.4105 55.133 9.0195 55.476 9.842 55.476 10.878 55.476 11.746 55.245 12.502 54.783 13.146 54.321 13.79 53.67 14.2905 52.83 14.6475 51.99 15.0045 50.989 15.183 49.827 15.183ZM61.428 15.183C60.14 15.183 59.181 14.854 58.551 14.196 57.921 13.538 57.606 12.586 57.606 11.34L57.606 6.384 55.611 6.384 55.611 4.746 57.606 4.746 57.606 1.659 59.727 1.659 59.727 4.746 62.898 4.746 62.898 6.384 59.727 6.384 59.727 11.172C59.727 11.914 59.8845 12.474 60.1995 12.852 60.5145 13.23 61.029 13.419 61.743 13.419 61.967 13.419 62.184 13.3945 62.394 13.3455 62.604 13.2965 62.814 13.237 63.024 13.167L63.36 14.763C63.15 14.889 62.8595 14.9905 62.4885 15.0675 62.1175 15.1445 61.764 15.183 61.428 15.183ZM68.472 15.183C67.436 15.183 66.54 14.966 65.784 14.532 65.028 14.098 64.4435 13.4855 64.0305 12.6945 63.6175 11.9035 63.411 10.962 63.411 9.87 63.411 8.778 63.6175 7.8365 64.0305 7.0455 64.4435 6.2545 65.028 5.642 65.784 5.208 66.54 4.774 67.436 4.557 68.472 4.557 69.48 4.557 70.362 4.774 71.118 5.208 71.874 5.642 72.462 6.2545 72.882 7.0455 73.302 7.8365 73.512 8.778 73.512 9.87 73.512 10.962 73.302 11.9035 72.882 12.6945 72.462 13.4855 71.874 14.098 71.118 14.532 70.362 14.966 69.48 15.183 68.472 15.183ZM68.472 13.545C69.34 13.545 70.04 13.23 70.572 12.6 71.104 11.97 71.37 11.06 71.37 9.87 71.37 8.68 71.104 7.7735 70.572 7.1505 70.04 6.5275 69.34 6.216 68.472 6.216 67.59 6.216 66.883 6.5275 66.351 7.1505 65.819 7.7735 65.553 8.68 65.553 9.87 65.553 11.06 65.819 11.97 66.351 12.6 66.883 13.23 67.59 13.545 68.472 13.545ZM75.285 14.994 75.285 4.746 77.343 4.746 77.343 6.573C77.875 5.355 78.981 4.676 80.661 4.536L81.354 4.494 81.501 6.3 80.22 6.426C78.358 6.608 77.427 7.567 77.427 9.303L77.427 14.994 75.285 14.994ZM87.18 15.183C85.5 15.183 84.177 14.7105 83.211 13.7655 82.245 12.8205 81.762 11.529 81.762 9.891 81.762 8.841 81.9755 7.9135 82.4025 7.1085 82.8295 6.3035 83.421 5.677 84.177 5.229 84.933 4.781 85.801 4.557 86.781 4.557 88.195 4.557 89.308 5.0085 90.12 5.9115 90.932 6.8145 91.338 8.057 91.338 9.639L91.338 10.353 83.82 10.353C83.974 12.481 85.101 13.545 87.201 13.545 87.789 13.545 88.3665 13.454 88.9335 13.272 89.5005 13.09 90.036 12.789 90.54 12.369L91.17 13.839C90.708 14.259 90.113 14.588 89.385 14.826 88.657 15.064 87.922 15.183 87.18 15.183ZM86.865 6.048C85.983 6.048 85.283 6.321 84.765 6.867 84.247 7.413 83.932 8.141 83.82 9.051L89.553 9.051C89.511 8.099 89.259 7.3605 88.797 6.8355 88.335 6.3105 87.691 6.048 86.865 6.048Z" transform="translate(68.231 26.006)"/><path fill="#FFF" fill-rule="nonzero" d="M0 8.46 0 0 2.988 0C4.38 0 5.454.364 6.21 1.092 6.966 1.82 7.344 2.864 7.344 4.224 7.344 5.584 6.966 6.63 6.21 7.362 5.454 8.094 4.38 8.46 2.988 8.46L0 8.46ZM1.248 7.416 2.916 7.416C5.004 7.416 6.048 6.352 6.048 4.224 6.048 2.104 5.004 1.044 2.916 1.044L1.248 1.044 1.248 7.416ZM11.124 8.568C10.532 8.568 10.02 8.444 9.588 8.196 9.156 7.948 8.822 7.598 8.586 7.146 8.35 6.694 8.232 6.156 8.232 5.532 8.232 4.908 8.35 4.37 8.586 3.918 8.822 3.466 9.156 3.116 9.588 2.868 10.02 2.62 10.532 2.496 11.124 2.496 11.7 2.496 12.204 2.62 12.636 2.868 13.068 3.116 13.404 3.466 13.644 3.918 13.884 4.37 14.004 4.908 14.004 5.532 14.004 6.156 13.884 6.694 13.644 7.146 13.404 7.598 13.068 7.948 12.636 8.196 12.204 8.444 11.7 8.568 11.124 8.568ZM11.124 7.632C11.62 7.632 12.02 7.452 12.324 7.092 12.628 6.732 12.78 6.212 12.78 5.532 12.78 4.852 12.628 4.334 12.324 3.978 12.02 3.622 11.62 3.444 11.124 3.444 10.62 3.444 10.216 3.622 9.912 3.978 9.608 4.334 9.456 4.852 9.456 5.532 9.456 6.212 9.608 6.732 9.912 7.092 10.216 7.452 10.62 7.632 11.124 7.632ZM17.112 8.568C16.632 8.568 16.184 8.506 15.768 8.382 15.352 8.258 15.004 8.084 14.724 7.86L15.072 7.044C15.368 7.252 15.694 7.412 16.05 7.524 16.406 7.636 16.764 7.692 17.124 7.692 17.548 7.692 17.868 7.616 18.084 7.464 18.3 7.312 18.408 7.108 18.408 6.852 18.408 6.644 18.336 6.482 18.192 6.366 18.048 6.25 17.832 6.16 17.544 6.096L16.404 5.868C15.396 5.66 14.892 5.14 14.892 4.308 14.892 3.756 15.112 3.316 15.552 2.988 15.992 2.66 16.568 2.496 17.28 2.496 17.688 2.496 18.078 2.556 18.45 2.676 18.822 2.796 19.132 2.976 19.38 3.216L19.032 4.032C18.792 3.824 18.516 3.664 18.204 3.552 17.892 3.44 17.584 3.384 17.28 3.384 16.864 3.384 16.548 3.462 16.332 3.618 16.116 3.774 16.008 3.984 16.008 4.248 16.008 4.648 16.272 4.904 16.8 5.016L17.94 5.244C18.46 5.348 18.854 5.524 19.122 5.772 19.39 6.02 19.524 6.356 19.524 6.78 19.524 7.34 19.304 7.778 18.864 8.094 18.424 8.41 17.84 8.568 17.112 8.568ZM23.004 8.568C22.268 8.568 21.72 8.38 21.36 8.004 21 7.628 20.82 7.084 20.82 6.372L20.82 3.54 19.68 3.54 19.68 2.604 20.82 2.604 20.82.84 22.032.84 22.032 2.604 23.844 2.604 23.844 3.54 22.032 3.54 22.032 6.276C22.032 6.7 22.122 7.02 22.302 7.236 22.482 7.452 22.776 7.56 23.184 7.56 23.312 7.56 23.436 7.546 23.556 7.518 23.676 7.49 23.796 7.456 23.916 7.416L24.108 8.328C23.988 8.4 23.822 8.458 23.61 8.502 23.398 8.546 23.196 8.568 23.004 8.568ZM26.676 8.568C25.26 8.568 24.552 7.78 24.552 6.204L24.552 2.604 25.764 2.604 25.764 6.216C25.764 6.688 25.86 7.036 26.052 7.26 26.244 7.484 26.548 7.596 26.964 7.596 27.42 7.596 27.79 7.444 28.074 7.14 28.358 6.836 28.5 6.428 28.5 5.916L28.5 2.604 29.712 2.604 29.712 8.46 28.536 8.46 28.536 7.524C28.344 7.868 28.088 8.128 27.768 8.304 27.448 8.48 27.084 8.568 26.676 8.568ZM31.116 10.62 31.116 2.604 32.304 2.604 32.304 3.6C32.472 3.264 32.728 2.996 33.072 2.796 33.416 2.596 33.812 2.496 34.26 2.496 34.78 2.496 35.234 2.62 35.622 2.868 36.01 3.116 36.31 3.466 36.522 3.918 36.734 4.37 36.84 4.908 36.84 5.532 36.84 6.156 36.734 6.696 36.522 7.152 36.31 7.608 36.01 7.958 35.622 8.202 35.234 8.446 34.78 8.568 34.26 8.568 33.828 8.568 33.442 8.474 33.102 8.286 32.762 8.098 32.504 7.84 32.328 7.512L32.328 10.62 31.116 10.62ZM33.96 7.632C34.464 7.632 34.866 7.452 35.166 7.092 35.466 6.732 35.616 6.212 35.616 5.532 35.616 4.852 35.466 4.334 35.166 3.978 34.866 3.622 34.464 3.444 33.96 3.444 33.456 3.444 33.054 3.622 32.754 3.978 32.454 4.334 32.304 4.852 32.304 5.532 32.304 6.212 32.454 6.732 32.754 7.092 33.054 7.452 33.456 7.632 33.96 7.632ZM37.908 8.46 37.908 2.604 39.084 2.604 39.084 3.576C39.284 3.224 39.558 2.956 39.906 2.772 40.254 2.588 40.644 2.496 41.076 2.496 42.46 2.496 43.152 3.28 43.152 4.848L43.152 8.46 41.94 8.46 41.94 4.92C41.94 4.416 41.842 4.048 41.646 3.816 41.45 3.584 41.144 3.468 40.728 3.468 40.24 3.468 39.85 3.622 39.558 3.93 39.266 4.238 39.12 4.644 39.12 5.148L39.12 8.46 37.908 8.46ZM47.064 8.568C46.472 8.568 45.96 8.444 45.528 8.196 45.096 7.948 44.762 7.598 44.526 7.146 44.29 6.694 44.172 6.156 44.172 5.532 44.172 4.908 44.29 4.37 44.526 3.918 44.762 3.466 45.096 3.116 45.528 2.868 45.96 2.62 46.472 2.496 47.064 2.496 47.64 2.496 48.144 2.62 48.576 2.868 49.008 3.116 49.344 3.466 49.584 3.918 49.824 4.37 49.944 4.908 49.944 5.532 49.944 6.156 49.824 6.694 49.584 7.146 49.344 7.598 49.008 7.948 48.576 8.196 48.144 8.444 47.64 8.568 47.064 8.568ZM47.064 7.632C47.56 7.632 47.96 7.452 48.264 7.092 48.568 6.732 48.72 6.212 48.72 5.532 48.72 4.852 48.568 4.334 48.264 3.978 47.96 3.622 47.56 3.444 47.064 3.444 46.56 3.444 46.156 3.622 45.852 3.978 45.548 4.334 45.396 4.852 45.396 5.532 45.396 6.212 45.548 6.732 45.852 7.092 46.156 7.452 46.56 7.632 47.064 7.632ZM53.856 8.46 53.856 2.604 55.032 2.604 55.032 3.576C55.232 3.224 55.506 2.956 55.854 2.772 56.202 2.588 56.592 2.496 57.024 2.496 58.408 2.496 59.1 3.28 59.1 4.848L59.1 8.46 57.888 8.46 57.888 4.92C57.888 4.416 57.79 4.048 57.594 3.816 57.398 3.584 57.092 3.468 56.676 3.468 56.188 3.468 55.798 3.622 55.506 3.93 55.214 4.238 55.068 4.644 55.068 5.148L55.068 8.46 53.856 8.46ZM62.34 8.568C61.932 8.568 61.568 8.488 61.248 8.328 60.928 8.168 60.674 7.952 60.486 7.68 60.298 7.408 60.204 7.1 60.204 6.756 60.204 6.324 60.314 5.984 60.534 5.736 60.754 5.488 61.118 5.308 61.626 5.196 62.134 5.084 62.82 5.028 63.684 5.028L64.092 5.028 64.092 4.716C64.092 4.26 63.996 3.932 63.804 3.732 63.612 3.532 63.296 3.432 62.856 3.432 62.52 3.432 62.184 3.482 61.848 3.582 61.512 3.682 61.168 3.84 60.816 4.056L60.444 3.204C60.748 2.988 61.128 2.816 61.584 2.688 62.04 2.56 62.476 2.496 62.892 2.496 63.692 2.496 64.284 2.686 64.668 3.066 65.052 3.446 65.244 4.04 65.244 4.848L65.244 8.46 64.104 8.46 64.104 7.488C63.96 7.824 63.736 8.088 63.432 8.28 63.128 8.472 62.764 8.568 62.34 8.568ZM62.58 7.704C63.012 7.704 63.372 7.552 63.66 7.248 63.948 6.944 64.092 6.56 64.092 6.096L64.092 5.772 63.696 5.772C63.112 5.772 62.654 5.8 62.322 5.856 61.99 5.912 61.754 6.006 61.614 6.138 61.474 6.27 61.404 6.452 61.404 6.684 61.404 6.988 61.508 7.234 61.716 7.422 61.924 7.61 62.212 7.704 62.58 7.704Z" transform="translate(68.984 10.54)"/><g transform="translate(14 8)"><rect width="40" height="40" fill="#BD10E0" fill-rule="nonzero" opacity="0"/><mask id="b" fill="#fff"><use xlink:href="#a"/></mask><g fill="#FFF" mask="url(#b)"><rect width="40" height="40"/></g></g></g></svg>