<svg xmlns="http://www.w3.org/2000/svg" xmlns:xlink="http://www.w3.org/1999/xlink" width="200" height="56" viewBox="0 0 200 56"><defs><path id="a" d="M28.3683333,20.8985 C28.3683333,16.8735 31.6833333,15.2151667 31.6833333,15.2151667 C31.6833333,15.2151667 29.9883333,12.2135 25.6783333,12.2135 C23.175,12.2135 21.25,13.6085 20.2133333,13.6085 C19.0066667,13.6085 17.2033333,12.2985 14.88,12.2985 C11.3083333,12.2985 7.5,15.4268333 7.5,21.3935 C7.5,27.4568333 12,35.0001667 15.56,35.0001667 C16.805,35.0001667 18.7133333,33.7751667 20.6366667,33.7751667 C22.525,33.7751667 23.9183333,34.9568333 25.71,34.9568333 C29.6116667,34.9568333 32.5,27.0035 32.5,27.0035 C32.5,27.0035 28.3683333,25.4401667 28.3683333,20.8985 Z M24.5238333,9.795 C26.5255,7.44333333 26.1088333,5 26.1088333,5 C26.1088333,5 23.3088333,5.01333333 21.2938333,7.61 C19.5005,9.92 19.9571667,11.8966667 19.9571667,11.8966667 C19.9571667,11.8966667 22.3871667,12.3083333 24.5238333,9.795 Z"/></defs><g fill="none" fill-rule="evenodd"><rect width="200" height="56" fill="#000" rx="8"/><path fill="#FFF" fill-rule="nonzero" d="M0 14.994 6.594.189 8.4.189 15.015 14.994 12.789 14.994 11.235 11.382 3.738 11.382 2.205 14.994 0 14.994ZM7.476 2.604 4.515 9.618 10.5 9.618 7.518 2.604 7.476 2.604ZM16.116 18.774 16.116 4.746 18.195 4.746 18.195 6.489C18.489 5.901 18.937 5.432 19.539 5.082 20.141 4.732 20.834 4.557 21.618 4.557 22.528 4.557 23.3225 4.774 24.0015 5.208 24.6805 5.642 25.2055 6.2545 25.5765 7.0455 25.9475 7.8365 26.133 8.778 26.133 9.87 26.133 10.962 25.9475 11.907 25.5765 12.705 25.2055 13.503 24.6805 14.1155 24.0015 14.5425 23.3225 14.9695 22.528 15.183 21.618 15.183 20.862 15.183 20.1865 15.0185 19.5915 14.6895 18.9965 14.3605 18.545 13.909 18.237 13.335L18.237 18.774 16.116 18.774ZM21.093 13.545C21.975 13.545 22.6785 13.23 23.2035 12.6 23.7285 11.97 23.991 11.06 23.991 9.87 23.991 8.68 23.7285 7.7735 23.2035 7.1505 22.6785 6.5275 21.975 6.216 21.093 6.216 20.211 6.216 19.5075 6.5275 18.9825 7.1505 18.4575 7.7735 18.195 8.68 18.195 9.87 18.195 11.06 18.4575 11.97 18.9825 12.6 19.5075 13.23 20.211 13.545 21.093 13.545ZM27.927 18.774 27.927 4.746 30.006 4.746 30.006 6.489C30.3 5.901 30.748 5.432 31.35 5.082 31.952 4.732 32.645 4.557 33.429 4.557 34.339 4.557 35.1335 4.774 35.8125 5.208 36.4915 5.642 37.0165 6.2545 37.3875 7.0455 37.7585 7.8365 37.944 8.778 37.944 9.87 37.944 10.962 37.7585 11.907 37.3875 12.705 37.0165 13.503 36.4915 14.1155 35.8125 14.5425 35.1335 14.9695 34.339 15.183 33.429 15.183 32.673 15.183 31.9975 15.0185 31.4025 14.6895 30.8075 14.3605 30.356 13.909 30.048 13.335L30.048 18.774 27.927 18.774ZM32.904 13.545C33.786 13.545 34.4895 13.23 35.0145 12.6 35.5395 11.97 35.802 11.06 35.802 9.87 35.802 8.68 35.5395 7.7735 35.0145 7.1505 34.4895 6.5275 33.786 6.216 32.904 6.216 32.022 6.216 31.3185 6.5275 30.7935 7.1505 30.2685 7.7735 30.006 8.68 30.006 9.87 30.006 11.06 30.2685 11.97 30.7935 12.6 31.3185 13.23 32.022 13.545 32.904 13.545ZM49.827 15.183C48.665 15.183 47.601 15.0325 46.635 14.7315 45.669 14.4305 44.85 14.007 44.178 13.461L44.871 11.739C45.571 12.271 46.32 12.67 47.118 12.936 47.916 13.202 48.819 13.335 49.827 13.335 51.017 13.335 51.8955 13.1215 52.4625 12.6945 53.0295 12.2675 53.313 11.711 53.313 11.025 53.313 10.465 53.11 10.0205 52.704 9.6915 52.298 9.3625 51.619 9.1 50.667 8.904L48.42 8.442C47.09 8.162 46.0995 7.7 45.4485 7.056 44.7975 6.412 44.472 5.544 44.472 4.452 44.472 3.57 44.7065 2.793 45.1755 2.121 45.6445 1.449 46.299.9275 47.139.5565 47.979.1855 48.945 0 50.037 0 51.045 0 51.9795.1505 52.8405.4515 53.7015.7525 54.433 1.19 55.035 1.764L54.321 3.423C53.131 2.373 51.696 1.848 50.016 1.848 48.98 1.848 48.1575 2.079 47.5485 2.541 46.9395 3.003 46.635 3.619 46.635 4.389 46.635 4.977 46.824 5.446 47.202 5.796 47.58 6.146 48.21 6.412 49.092 6.594L51.318 7.056C52.718 7.35 53.761 7.8015 54.447 8.4105 55.133 9.0195 55.476 9.842 55.476 10.878 55.476 11.746 55.245 12.502 54.783 13.146 54.321 13.79 53.67 14.2905 52.83 14.6475 51.99 15.0045 50.989 15.183 49.827 15.183ZM61.428 15.183C60.14 15.183 59.181 14.854 58.551 14.196 57.921 13.538 57.606 12.586 57.606 11.34L57.606 6.384 55.611 6.384 55.611 4.746 57.606 4.746 57.606 1.659 59.727 1.659 59.727 4.746 62.898 4.746 62.898 6.384 59.727 6.384 59.727 11.172C59.727 11.914 59.8845 12.474 60.1995 12.852 60.5145 13.23 61.029 13.419 61.743 13.419 61.967 13.419 62.184 13.3945 62.394 13.3455 62.604 13.2965 62.814 13.237 63.024 13.167L63.36 14.763C63.15 14.889 62.8595 14.9905 62.4885 15.0675 62.1175 15.1445 61.764 15.183 61.428 15.183ZM68.472 15.183C67.436 15.183 66.54 14.966 65.784 14.532 65.028 14.098 64.4435 13.4855 64.0305 12.6945 63.6175 11.9035 63.411 10.962 63.411 9.87 63.411 8.778 63.6175 7.8365 64.0305 7.0455 64.4435 6.2545 65.028 5.642 65.784 5.208 66.54 4.774 67.436 4.557 68.472 4.557 69.48 4.557 70.362 4.774 71.118 5.208 71.874 5.642 72.462 6.2545 72.882 7.0455 73.302 7.8365 73.512 8.778 73.512 9.87 73.512 10.962 73.302 11.9035 72.882 12.6945 72.462 13.4855 71.874 14.098 71.118 14.532 70.362 14.966 69.48 15.183 68.472 15.183ZM68.472 13.545C69.34 13.545 70.04 13.23 70.572 12.6 71.104 11.97 71.37 11.06 71.37 9.87 71.37 8.68 71.104 7.7735 70.572 7.1505 70.04 6.5275 69.34 6.216 68.472 6.216 67.59 6.216 66.883 6.5275 66.351 7.1505 65.819 7.7735 65.553 8.68 65.553 9.87 65.553 11.06 65.819 11.97 66.351 12.6 66.883 13.23 67.59 13.545 68.472 13.545ZM75.285 14.994 75.285 4.746 77.343 4.746 77.343 6.573C77.875 5.355 78.981 4.676 80.661 4.536L81.354 4.494 81.501 6.3 80.22 6.426C78.358 6.608 77.427 7.567 77.427 9.303L77.427 14.994 75.285 14.994ZM87.18 15.183C85.5 15.183 84.177 14.7105 83.211 13.7655 82.245 12.8205 81.762 11.529 81.762 9.891 81.762 8.841 81.9755 7.9135 82.4025 7.1085 82.8295 6.3035 83.421 5.677 84.177 5.229 84.933 4.781 85.801 4.557 86.781 4.557 88.195 4.557 89.308 5.0085 90.12 5.9115 90.932 6.8145 91.338 8.057 91.338 9.639L91.338 10.353 83.82 10.353C83.974 12.481 85.101 13.545 87.201 13.545 87.789 13.545 88.3665 13.454 88.9335 13.272 89.5005 13.09 90.036 12.789 90.54 12.369L91.17 13.839C90.708 14.259 90.113 14.588 89.385 14.826 88.657 15.064 87.922 15.183 87.18 15.183ZM86.865 6.048C85.983 6.048 85.283 6.321 84.765 6.867 84.247 7.413 83.932 8.141 83.82 9.051L89.553 9.051C89.511 8.099 89.259 7.3605 88.797 6.8355 88.335 6.3105 87.691 6.048 86.865 6.048Z" transform="translate(68.231 26.006)"/><g fill="#FFF" fill-rule="nonzero" transform="translate(68.132 10.528)"><path d="M0,8.472 L3.768,0.012 L4.8,0.012 L8.58,8.472 L7.308,8.472 L6.42,6.408 L2.136,6.408 L1.26,8.472 L0,8.472 Z M4.272,1.392 L2.58,5.4 L6,5.4 L4.296,1.392 L4.272,1.392 Z"/><polygon points="10.644 8.472 8.124 2.616 9.432 2.616 11.22 7.068 13.056 2.616 14.292 2.616 11.736 8.472"/><path d="M16.62 8.58C16.212 8.58 15.848 8.5 15.528 8.34 15.208 8.18 14.954 7.964 14.766 7.692 14.578 7.42 14.484 7.112 14.484 6.768 14.484 6.336 14.594 5.996 14.814 5.748 15.034 5.5 15.398 5.32 15.906 5.208 16.414 5.096 17.1 5.04 17.964 5.04L18.372 5.04 18.372 4.728C18.372 4.272 18.276 3.944 18.084 3.744 17.892 3.544 17.576 3.444 17.136 3.444 16.8 3.444 16.464 3.494 16.128 3.594 15.792 3.694 15.448 3.852 15.096 4.068L14.724 3.216C15.028 3 15.408 2.828 15.864 2.7 16.32 2.572 16.756 2.508 17.172 2.508 17.972 2.508 18.564 2.698 18.948 3.078 19.332 3.458 19.524 4.052 19.524 4.86L19.524 8.472 18.384 8.472 18.384 7.5C18.24 7.836 18.016 8.1 17.712 8.292 17.408 8.484 17.044 8.58 16.62 8.58ZM16.86 7.716C17.292 7.716 17.652 7.564 17.94 7.26 18.228 6.956 18.372 6.572 18.372 6.108L18.372 5.784 17.976 5.784C17.392 5.784 16.934 5.812 16.602 5.868 16.27 5.924 16.034 6.018 15.894 6.15 15.754 6.282 15.684 6.464 15.684 6.696 15.684 7 15.788 7.246 15.996 7.434 16.204 7.622 16.492 7.716 16.86 7.716ZM20.784 1.26 20.784 0 22.2 0 22.2 1.26 20.784 1.26ZM20.892 8.472 20.892 2.616 22.104 2.616 22.104 8.472 20.892 8.472ZM25.416 8.58C24.776 8.58 24.298 8.4 23.982 8.04 23.666 7.68 23.508 7.152 23.508 6.456L23.508.012 24.72.012 24.72 6.384C24.72 7.176 25.044 7.572 25.692 7.572 25.788 7.572 25.878 7.568 25.962 7.56 26.046 7.552 26.132 7.536 26.22 7.512L26.196 8.484C25.924 8.548 25.664 8.58 25.416 8.58ZM28.752 8.58C28.344 8.58 27.98 8.5 27.66 8.34 27.34 8.18 27.086 7.964 26.898 7.692 26.71 7.42 26.616 7.112 26.616 6.768 26.616 6.336 26.726 5.996 26.946 5.748 27.166 5.5 27.53 5.32 28.038 5.208 28.546 5.096 29.232 5.04 30.096 5.04L30.504 5.04 30.504 4.728C30.504 4.272 30.408 3.944 30.216 3.744 30.024 3.544 29.708 3.444 29.268 3.444 28.932 3.444 28.596 3.494 28.26 3.594 27.924 3.694 27.58 3.852 27.228 4.068L26.856 3.216C27.16 3 27.54 2.828 27.996 2.7 28.452 2.572 28.888 2.508 29.304 2.508 30.104 2.508 30.696 2.698 31.08 3.078 31.464 3.458 31.656 4.052 31.656 4.86L31.656 8.472 30.516 8.472 30.516 7.5C30.372 7.836 30.148 8.1 29.844 8.292 29.54 8.484 29.176 8.58 28.752 8.58ZM28.992 7.716C29.424 7.716 29.784 7.564 30.072 7.26 30.36 6.956 30.504 6.572 30.504 6.108L30.504 5.784 30.108 5.784C29.524 5.784 29.066 5.812 28.734 5.868 28.402 5.924 28.166 6.018 28.026 6.15 27.886 6.282 27.816 6.464 27.816 6.696 27.816 7 27.92 7.246 28.128 7.434 28.336 7.622 28.624 7.716 28.992 7.716ZM36.168 8.58C35.72 8.58 35.324 8.48 34.98 8.28 34.636 8.08 34.38 7.812 34.212 7.476L34.212 8.472 33.024 8.472 33.024.012 34.236.012 34.236 3.564C34.412 3.244 34.67 2.988 35.01 2.796 35.35 2.604 35.736 2.508 36.168 2.508 36.688 2.508 37.142 2.632 37.53 2.88 37.918 3.128 38.218 3.478 38.43 3.93 38.642 4.382 38.748 4.92 38.748 5.544 38.748 6.168 38.642 6.708 38.43 7.164 38.218 7.62 37.918 7.97 37.53 8.214 37.142 8.458 36.688 8.58 36.168 8.58ZM35.868 7.644C36.372 7.644 36.774 7.464 37.074 7.104 37.374 6.744 37.524 6.224 37.524 5.544 37.524 4.864 37.374 4.346 37.074 3.99 36.774 3.634 36.372 3.456 35.868 3.456 35.364 3.456 34.962 3.634 34.662 3.99 34.362 4.346 34.212 4.864 34.212 5.544 34.212 6.224 34.362 6.744 34.662 7.104 34.962 7.464 35.364 7.644 35.868 7.644ZM41.724 8.58C41.084 8.58 40.606 8.4 40.29 8.04 39.974 7.68 39.816 7.152 39.816 6.456L39.816.012 41.028.012 41.028 6.384C41.028 7.176 41.352 7.572 42 7.572 42.096 7.572 42.186 7.568 42.27 7.56 42.354 7.552 42.44 7.536 42.528 7.512L42.504 8.484C42.232 8.548 41.972 8.58 41.724 8.58ZM45.876 8.58C44.916 8.58 44.16 8.31 43.608 7.77 43.056 7.23 42.78 6.492 42.78 5.556 42.78 4.956 42.902 4.426 43.146 3.966 43.39 3.506 43.728 3.148 44.16 2.892 44.592 2.636 45.088 2.508 45.648 2.508 46.456 2.508 47.092 2.766 47.556 3.282 48.02 3.798 48.252 4.508 48.252 5.412L48.252 5.82 43.956 5.82C44.044 7.036 44.688 7.644 45.888 7.644 46.224 7.644 46.554 7.592 46.878 7.488 47.202 7.384 47.508 7.212 47.796 6.972L48.156 7.812C47.892 8.052 47.552 8.24 47.136 8.376 46.72 8.512 46.3 8.58 45.876 8.58ZM45.696 3.36C45.192 3.36 44.792 3.516 44.496 3.828 44.2 4.14 44.02 4.556 43.956 5.076L47.232 5.076C47.208 4.532 47.064 4.11 46.8 3.81 46.536 3.51 46.168 3.36 45.696 3.36ZM54.672 8.58C54.08 8.58 53.568 8.456 53.136 8.208 52.704 7.96 52.37 7.61 52.134 7.158 51.898 6.706 51.78 6.168 51.78 5.544 51.78 4.92 51.898 4.382 52.134 3.93 52.37 3.478 52.704 3.128 53.136 2.88 53.568 2.632 54.08 2.508 54.672 2.508 55.248 2.508 55.752 2.632 56.184 2.88 56.616 3.128 56.952 3.478 57.192 3.93 57.432 4.382 57.552 4.92 57.552 5.544 57.552 6.168 57.432 6.706 57.192 7.158 56.952 7.61 56.616 7.96 56.184 8.208 55.752 8.456 55.248 8.58 54.672 8.58ZM54.672 7.644C55.168 7.644 55.568 7.464 55.872 7.104 56.176 6.744 56.328 6.224 56.328 5.544 56.328 4.864 56.176 4.346 55.872 3.99 55.568 3.634 55.168 3.456 54.672 3.456 54.168 3.456 53.764 3.634 53.46 3.99 53.156 4.346 53.004 4.864 53.004 5.544 53.004 6.224 53.156 6.744 53.46 7.104 53.764 7.464 54.168 7.644 54.672 7.644ZM58.608 8.472 58.608 2.616 59.784 2.616 59.784 3.588C59.984 3.236 60.258 2.968 60.606 2.784 60.954 2.6 61.344 2.508 61.776 2.508 63.16 2.508 63.852 3.292 63.852 4.86L63.852 8.472 62.64 8.472 62.64 4.932C62.64 4.428 62.542 4.06 62.346 3.828 62.15 3.596 61.844 3.48 61.428 3.48 60.94 3.48 60.55 3.634 60.258 3.942 59.966 4.25 59.82 4.656 59.82 5.16L59.82 8.472 58.608 8.472ZM70.572 8.58C69.836 8.58 69.288 8.392 68.928 8.016 68.568 7.64 68.388 7.096 68.388 6.384L68.388 3.552 67.248 3.552 67.248 2.616 68.388 2.616 68.388.852 69.6.852 69.6 2.616 71.412 2.616 71.412 3.552 69.6 3.552 69.6 6.288C69.6 6.712 69.69 7.032 69.87 7.248 70.05 7.464 70.344 7.572 70.752 7.572 70.88 7.572 71.004 7.558 71.124 7.53 71.244 7.502 71.364 7.468 71.484 7.428L71.676 8.34C71.556 8.412 71.39 8.47 71.178 8.514 70.966 8.558 70.764 8.58 70.572 8.58ZM72.156 8.472 72.156.012 73.368.012 73.368 3.528C73.568 3.192 73.838 2.938 74.178 2.766 74.518 2.594 74.9 2.508 75.324 2.508 76.708 2.508 77.4 3.292 77.4 4.86L77.4 8.472 76.188 8.472 76.188 4.932C76.188 4.428 76.09 4.06 75.894 3.828 75.698 3.596 75.392 3.48 74.976 3.48 74.488 3.48 74.098 3.634 73.806 3.942 73.514 4.25 73.368 4.656 73.368 5.16L73.368 8.472 72.156 8.472ZM81.516 8.58C80.556 8.58 79.8 8.31 79.248 7.77 78.696 7.23 78.42 6.492 78.42 5.556 78.42 4.956 78.542 4.426 78.786 3.966 79.03 3.506 79.368 3.148 79.8 2.892 80.232 2.636 80.728 2.508 81.288 2.508 82.096 2.508 82.732 2.766 83.196 3.282 83.66 3.798 83.892 4.508 83.892 5.412L83.892 5.82 79.596 5.82C79.684 7.036 80.328 7.644 81.528 7.644 81.864 7.644 82.194 7.592 82.518 7.488 82.842 7.384 83.148 7.212 83.436 6.972L83.796 7.812C83.532 8.052 83.192 8.24 82.776 8.376 82.36 8.512 81.94 8.58 81.516 8.58ZM81.336 3.36C80.832 3.36 80.432 3.516 80.136 3.828 79.84 4.14 79.66 4.556 79.596 5.076L82.872 5.076C82.848 4.532 82.704 4.11 82.44 3.81 82.176 3.51 81.808 3.36 81.336 3.36Z"/></g><g transform="translate(14 8)"><rect width="40" height="40" fill="#BD10E0" fill-rule="nonzero" opacity="0"/><mask id="b" fill="#fff"><use xlink:href="#a"/></mask><g fill="#FFF" mask="url(#b)"><rect width="40" height="40"/></g></g></g></svg>